<?xml version="1.0" standalone="no"?>
<!DOCTYPE svg PUBLIC "-//W3C//DTD SVG 20010904//EN"
 "http://www.w3.org/TR/2001/REC-SVG-20010904/DTD/svg10.dtd">
<svg version="1.0" xmlns="http://www.w3.org/2000/svg"
 width="500.000000pt" height="500.000000pt" viewBox="0 0 500.000000 500.000000"
 preserveAspectRatio="xMidYMid meet">

<g transform="translate(0.000000,500.000000) scale(0.100000,-0.100000)"
fill="#000000" stroke="none">
<path d="M2320 3484 c-189 -34 -361 -110 -509 -225 -372 -287 -520 -772 -375
-1230 121 -385 465 -682 874 -755 90 -16 270 -18 360 -4 567 91 971 583 947
1155 -7 153 -30 258 -88 395 -150 352 -464 596 -855 664 -106 19 -251 19 -354
0z m180 -218 c0 -180 1 -194 18 -198 11 -3 44 -43 75 -89 39 -57 71 -93 102
-112 25 -16 63 -49 85 -74 27 -31 45 -43 56 -39 24 9 417 237 431 250 28 26
-132 211 -252 293 -63 42 -145 86 -205 109 l-35 14 34 -6 c63 -12 204 -77 291
-135 291 -196 465 -506 478 -854 9 -249 -48 -452 -185 -658 -54 -81 -174 -205
-250 -260 l-53 -37 0 133 c0 72 -4 159 -10 191 l-10 60 73 75 c67 70 144 169
135 175 -4 4 -171 101 -265 155 -56 32 -74 48 -78 69 -18 85 -28 118 -41 144
-13 26 -19 29 -47 22 -62 -13 -157 -63 -205 -108 -43 -40 -53 -45 -80 -40 -28
6 -30 8 -19 31 9 20 7 27 -12 46 -16 15 -25 18 -28 9 -3 -6 -8 -10 -13 -7 -4
3 -7 -6 -6 -20 0 -14 4 -25 9 -25 4 0 7 -4 7 -10 0 -5 -17 -10 -37 -10 -21 0
-58 -5 -82 -11 -43 -9 -44 -9 -91 35 -26 24 -70 56 -98 70 -43 22 -52 31 -58
61 -9 48 3 130 26 183 l19 42 -32 16 c-18 9 -76 43 -129 75 -54 33 -99 59
-102 59 -2 0 -46 25 -97 55 -51 30 -96 55 -100 55 -13 0 -72 -148 -95 -240
-47 -188 -22 -424 64 -595 28 -57 25 -58 162 21 70 41 131 74 133 74 3 0 9
-24 12 -54 6 -47 4 -59 -14 -85 -52 -73 -75 -143 -76 -226 0 -68 4 -88 27
-131 25 -48 65 -90 117 -124 l23 -15 -31 -78 c-36 -89 -35 -87 -18 -87 8 0 28
38 46 86 32 83 32 87 15 97 -11 5 -44 35 -75 66 -66 67 -84 119 -77 214 5 58
46 164 80 204 5 7 11 66 13 130 3 141 23 213 59 213 32 0 134 -53 184 -96 38
-32 41 -38 26 -49 -13 -9 3 -8 62 2 73 13 168 12 258 -3 21 -4 27 -3 18 4 -32
22 160 147 215 140 40 -5 56 -60 59 -206 3 -108 6 -126 25 -154 32 -45 68
-138 69 -176 0 -32 -1 -33 -35 -26 -26 5 -36 2 -41 -9 -5 -13 -10 -14 -30 -5
-20 10 -28 8 -48 -11 -13 -12 -28 -39 -34 -59 -9 -28 -52 -327 -52 -357 0 -3
7 -5 15 -5 8 0 15 8 15 18 0 30 30 282 36 310 11 43 33 82 49 82 7 0 21 -7 29
-16 9 -8 16 -11 16 -5 0 5 7 17 16 26 15 14 18 15 34 0 15 -14 18 -14 30 0 40
48 53 -4 60 -227 l5 -197 -80 -39 c-178 -88 -321 -117 -535 -109 -117 4 -163
10 -235 31 -401 118 -676 410 -777 826 -8 35 -13 116 -13 225 1 143 4 183 23
251 73 271 228 492 449 642 107 73 206 116 348 151 103 26 118 28 193 30 l62
1 0 -194z m107 188 c-3 -3 -12 -4 -19 -1 -8 3 -5 6 6 6 11 1 17 -2 13 -5z
m120 -20 c-3 -3 -12 -4 -19 -1 -8 3 -5 6 6 6 11 1 17 -2 13 -5z"/>
<path d="M2490 2760 c12 -7 11 -12 -5 -32 -11 -13 -16 -20 -11 -16 10 8 46
-44 46 -65 0 -7 -9 -20 -20 -30 -16 -13 -18 -21 -10 -42 6 -15 10 -36 10 -48
0 -18 -2 -19 -10 -7 -23 35 -8 -6 17 -49 5 -8 43 32 43 46 0 7 15 29 34 47 55
56 55 114 0 171 -27 28 -41 35 -71 35 -27 0 -34 -3 -23 -10z"/>
<path d="M2459 2733 c-13 -16 -12 -17 4 -4 9 7 17 15 17 17 0 8 -8 3 -21 -13z"/>
<path d="M2390 2700 c-11 -20 -4 -50 12 -50 7 0 6 5 -1 14 -13 15 -4 49 11 40
5 -3 7 -12 4 -20 -3 -8 0 -11 9 -8 8 3 11 12 9 19 -9 22 -33 25 -44 5z"/>
<path d="M2451 2524 c0 -11 3 -14 6 -6 3 7 2 16 -1 19 -3 4 -6 -2 -5 -13z"/>
<path d="M2080 2410 c0 -8 11 -38 24 -66 l23 -50 -28 -32 c-48 -53 -33 -67 16
-15 l45 46 -27 46 c-41 72 -53 88 -53 71z"/>
<path d="M2817 2373 c-51 -81 -51 -76 -2 -127 52 -54 59 -48 14 13 -20 28 -27
47 -21 54 12 16 43 97 37 97 -3 0 -15 -17 -28 -37z"/>
<path d="M2173 2070 c-49 -29 -84 -110 -48 -110 8 0 27 19 41 43 44 70 55 70
86 1 18 -42 40 -56 53 -34 11 18 -5 67 -30 94 -29 31 -59 33 -102 6z"/>
<path d="M2685 2071 c-55 -33 -86 -101 -46 -101 11 0 23 12 31 29 15 37 45 65
60 56 6 -4 20 -27 30 -51 20 -46 26 -50 49 -35 13 8 12 15 -4 51 -19 43 -48
70 -75 70 -8 0 -29 -8 -45 -19z"/>
<path d="M2375 1950 c-12 -19 4 -58 26 -65 11 -4 30 0 42 8 19 13 25 12 45 -1
34 -22 72 -3 72 38 0 16 -4 30 -10 30 -5 0 -10 -9 -10 -20 0 -34 -29 -36 -54
-5 l-22 27 -17 -26 c-17 -26 -46 -35 -48 -16 -1 6 -2 14 -3 19 -2 17 -14 23
-21 11z"/>
<path d="M2940 1821 c0 -5 5 -13 10 -16 6 -3 10 -2 10 4 0 5 -4 13 -10 16 -5
3 -10 2 -10 -4z"/>
<path d="M2876 1811 c-4 -7 -5 -15 -2 -18 9 -9 19 4 14 18 -4 11 -6 11 -12 0z"/>
<path d="M3005 1811 c-3 -5 -1 -12 5 -16 5 -3 10 1 10 9 0 18 -6 21 -15 7z"/>
<path d="M2896 1743 c-14 -36 42 -84 72 -62 33 25 42 41 32 59 -12 22 -96 25
-104 3z"/>
</g>
</svg>
